<?xml version="1.0" standalone="no"?>
<!DOCTYPE svg PUBLIC "-//W3C//DTD SVG 20010904//EN"
 "http://www.w3.org/TR/2001/REC-SVG-20010904/DTD/svg10.dtd">
<svg version="1.0" xmlns="http://www.w3.org/2000/svg"
 width="100.000000pt" height="100.000000pt" viewBox="0 0 100.000000 100.000000"
 preserveAspectRatio="xMidYMid meet">

<g transform="translate(0.000000,100.000000) scale(0.100000,-0.100000)"
fill="#000000" stroke="none">
<path d="M716 761 l-39 -40 -174 -3 c-224 -4 -213 5 -213 -185 0 -148 -2 -152
-70 -190 -67 -38 -48 -84 34 -81 l51 1 -55 6 c-47 5 -55 9 -58 28 -2 17 6 26
35 39 21 10 44 26 51 36 16 21 35 23 51 4 6 -7 22 -11 36 -8 18 3 27 -1 32
-14 4 -11 13 -24 21 -30 25 -19 10 -48 -28 -55 l-35 -6 32 -2 c17 0 35 4 38 9
4 6 56 10 123 10 141 0 163 9 176 67 7 30 15 43 30 46 20 4 19 4 -1 6 -22 1
-23 5 -23 82 0 71 2 80 17 77 10 -2 22 -13 28 -24 8 -16 14 -19 26 -11 20 13
47 3 56 -20 4 -10 15 -24 25 -31 21 -15 23 -43 6 -60 -7 -7 -32 -13 -57 -14
l-46 -1 44 -4 c31 -3 48 1 62 13 27 24 24 40 -18 91 -28 34 -42 44 -60 40 -14
-2 -29 3 -39 14 -10 11 -23 19 -31 19 -8 0 -13 13 -13 38 0 32 7 45 45 82 25
24 45 49 45 55 0 14 -42 55 -56 55 -6 0 -27 -18 -48 -39z m76 12 c10 -9 18
-20 18 -25 0 -14 -170 -187 -205 -209 -16 -10 -24 -19 -17 -19 7 0 38 23 68
51 l54 52 0 -146 c0 -119 -3 -148 -16 -161 -12 -13 -40 -16 -135 -16 -73 0
-119 4 -119 10 0 6 44 10 113 10 75 0 117 4 125 12 7 7 11 37 10 77 l-2 66 -3
-60 c-2 -32 -9 -65 -15 -72 -7 -9 -44 -13 -128 -13 -115 0 -118 1 -134 26 -12
17 -25 24 -39 22 -12 -2 -30 5 -39 15 -25 24 -27 267 -2 291 13 13 43 16 171
16 l156 0 -56 -59 c-32 -33 -57 -65 -57 -73 0 -7 8 1 19 17 21 34 154 165 168
165 5 0 15 -6 23 -12 8 -7 7 -4 -3 8 -13 16 -14 23 -5 32 16 16 28 15 50 -5z"/>
<path d="M650 653 l-55 -58 58 55 c31 30 57 56 57 57 0 8 -10 -1 -60 -54z"/>
<path d="M675 638 l-50 -53 53 50 c48 46 57 55 49 55 -1 0 -25 -24 -52 -52z"/>
<path d="M342 668 c-8 -8 -11 -48 -10 -127 l2 -116 3 112 c3 75 8 115 16 122
7 6 67 12 133 14 l119 3 -125 2 c-87 1 -130 -2 -138 -10z"/>
<path d="M681 564 c0 -11 3 -14 6 -6 3 7 2 16 -1 19 -3 4 -6 -2 -5 -13z"/>
<path d="M527 528 c-8 -28 -5 -30 22 -20 22 8 22 8 3 25 -19 17 -20 17 -25 -5z"/>
<path d="M682 510 c0 -14 2 -19 5 -12 2 6 2 18 0 25 -3 6 -5 1 -5 -13z"/>
</g>
</svg>
